<svg xmlns="http://www.w3.org/2000/svg" xmlns:xlink="http://www.w3.org/1999/xlink" width="180" height="180" viewBox="0 0 200 200">
<path fill="#32AAAA" d="M64.752,37.779c-3.423,3.422-3.423,9.023,0,12.449l35.262,35.256l35.283-35.279 c3.422-3.42,3.422-9.027,0-12.447L100.034,2.5L64.752,37.779z"/>
<polygon fill="#D87151" points="139.139,153.566 89.008,167.012 102.451,116.879 "/>
<line fill="none" stroke="#EEBC69" stroke-width="6" stroke-linecap="round" stroke-linejoin="round" stroke-miterlimit="10" x1="135.275" y1="120.749" x2="176.777" y2="79.244"/>
<path fill="none" stroke="#155472" stroke-width="6" stroke-linecap="round" stroke-linejoin="round" stroke-miterlimit="10" d="M64.752,37.779c-3.423,3.422-3.423,9.023,0,12.449l35.262,35.256l35.283-35.279c3.422-3.42,3.422-9.027,0-12.447L100.034,2.5 L64.752,37.779z M99.986,197.515L2.5,100.032l35.28-35.281c3.423-3.425,9.028-3.425,12.45,0l29.036,29.034 c3.421,3.422,3.421,9.028-0.006,12.453l-25.94,25.939 M114.531,100.004L156.035,58.5 M156.01,141.486l41.506-41.502 M102.451,116.879L89.01,167.016l50.132-13.441L102.451,116.879z"/>
</svg>